<svg version="1.0" xmlns="http://www.w3.org/2000/svg"
 width="162.000000pt" height="247.000000pt" viewBox="0 0 162.000000 247.000000"
 preserveAspectRatio="xMidYMid meet">

<g transform="translate(0.000000,247.000000) scale(0.100000,-0.100000)"
fill="#000000" stroke="none">
<path d="M1158 2363 c7 -3 16 -2 19 1 4 3 -2 6 -13 5 -11 0 -14 -3 -6 -6z"/>
<path d="M1296 2294 c-78 -59 -104 -74 -123 -69 -16 4 -23 1 -23 -9 0 -9 14
-18 35 -22 39 -7 49 -17 59 -56 11 -47 25 -31 21 25 l-3 52 71 52 c40 29 86
64 102 78 l30 24 -35 0 c-28 0 -55 -15 -134 -75z"/>
<path d="M1435 2300 c-49 -38 -100 -70 -112 -70 -30 0 -29 -18 1 -31 30 -14
50 -51 44 -82 -4 -19 -1 -24 10 -20 11 5 13 19 10 57 l-4 51 90 70 c49 39 91
76 94 83 10 31 -51 5 -133 -58z"/>
<path d="M556 2235 c-8 -23 32 -35 120 -35 62 0 77 -3 95 -21 21 -21 22 -28
16 -166 -4 -94 -10 -150 -18 -160 -12 -13 -14 -13 -19 2 -5 14 -19 7 -81 -42
-40 -32 -201 -155 -357 -273 -156 -118 -290 -220 -299 -227 -8 -6 -13 -23 -11
-38 3 -26 7 -23 143 81 170 131 246 189 482 368 100 75 183 143 186 149 9 26
-8 326 -20 338 -6 6 -34 11 -62 11 -49 -2 -121 9 -152 22 -10 5 -19 1 -23 -9z"/>
<path d="M100 2220 c-6 -11 -9 -21 -8 -21 2 -1 55 -4 118 -8 l114 -6 11 -38
c13 -47 25 -38 25 19 0 52 -5 54 -121 54 -50 0 -99 5 -109 10 -15 8 -21 6 -30
-10z"/>
<path d="M396 2232 c-9 -15 9 -30 51 -41 35 -10 43 -17 53 -47 8 -22 10 -56 6
-88 -6 -41 -5 -49 5 -39 7 7 16 39 20 70 8 75 -8 120 -48 128 -15 4 -38 11
-51 16 -28 11 -30 11 -36 1z"/>
<path d="M845 2231 c-14 -24 10 -31 108 -31 56 0 108 -4 115 -9 21 -13 28 -89
9 -97 -13 -5 -14 -20 -10 -98 4 -62 2 -100 -6 -117 l-12 -24 20 23 c10 12 22
40 26 62 8 47 29 92 50 110 8 7 15 19 15 27 0 10 -10 6 -35 -13 -32 -24 -35
-25 -35 -7 0 11 9 28 20 38 20 18 28 65 11 65 -5 0 -11 12 -13 28 l-3 27 -110
6 c-60 3 -117 9 -126 13 -10 4 -20 3 -24 -3z"/>
<path d="M1434 2229 c-4 -7 10 -25 31 -43 31 -26 36 -36 31 -56 -7 -24 -7 -25
9 -5 25 31 15 65 -27 91 -25 16 -39 20 -44 13z"/>
<path d="M316 2074 c-3 -8 -3 -26 0 -39 3 -14 9 -57 13 -97 6 -67 8 -71 20
-50 10 19 10 40 0 113 -11 86 -20 106 -33 73z"/>
<path d="M876 2080 c-6 -8 -10 -53 -11 -100 l-1 -85 48 46 c26 25 63 54 83 65
27 14 35 25 35 46 0 16 -3 28 -7 28 -5 0 -34 -20 -65 -45 -32 -25 -60 -45 -62
-45 -3 0 -6 24 -8 53 -2 37 -6 48 -12 37z"/>
<path d="M1190 2051 c-15 -29 -13 -101 3 -101 21 0 28 12 16 27 -7 8 -9 29 -5
53 7 44 2 51 -14 21z"/>
<path d="M1305 2015 c-14 -32 -25 -61 -25 -66 0 -12 77 -11 85 1 4 6 -7 10
-24 10 -36 0 -41 22 -15 71 8 17 13 33 10 36 -3 3 -17 -20 -31 -52z"/>
<path d="M110 2045 c-10 -12 -9 -15 5 -15 15 0 17 -9 13 -75 -3 -63 -1 -73 9
-59 7 10 13 44 13 75 0 32 3 64 6 73 8 21 -29 22 -46 1z"/>
<path d="M1435 2024 c-19 -29 -55 -129 -55 -153 0 -29 18 3 35 64 9 33 23 72
31 87 18 35 12 36 -11 2z"/>
<path d="M915 1902 c-202 -157 -253 -196 -420 -323 -457 -346 -490 -373 -493
-402 -2 -15 -1 -27 2 -27 3 0 94 69 203 153 109 84 245 188 303 232 390 293
520 398 520 421 0 13 -3 24 -7 24 -5 -1 -53 -36 -108 -78z"/>
<path d="M900 305 c0 -8 5 -15 10 -15 13 0 13 -57 0 -65 -6 -4 -8 -11 -4 -16
4 -7 10 -6 18 0 9 7 16 7 24 -1 6 -6 22 -8 36 -4 24 6 26 11 26 56 l0 50 -37
-3 c-21 -2 -46 0 -55 5 -13 6 -18 5 -18 -7z"/>
<path d="M390 300 c0 -5 5 -10 10 -10 6 0 10 -5 10 -11 0 -5 -4 -7 -10 -4 -6
4 -10 -9 -10 -32 0 -32 3 -39 20 -39 17 0 20 7 20 53 0 46 -3 53 -20 53 -11 0
-20 -4 -20 -10z"/>
<path d="M444 294 c3 -9 6 -33 6 -55 0 -21 5 -39 10 -39 6 0 10 25 10 55 0 44
-3 55 -16 55 -11 0 -14 -5 -10 -16z"/>
<path d="M480 253 l0 -53 75 2 75 3 0 52 0 52 -75 -1 -75 -1 0 -54z m125 37
c3 -5 1 -10 -4 -10 -6 0 -11 5 -11 10 0 6 2 10 4 10 3 0 8 -4 11 -10z m-43
-12 c3 -7 1 -24 -3 -38 -6 -23 -7 -23 -8 -3 -1 12 -4 28 -7 37 -3 9 -2 16 4
16 5 0 12 -6 14 -12z"/>
<path d="M670 243 c0 -35 4 -63 10 -63 6 0 10 4 10 10 0 5 11 12 25 16 22 6
25 11 25 55 l0 48 -35 -1 -35 -1 0 -64z"/>
<path d="M755 255 c0 -47 3 -55 19 -55 12 0 16 5 12 16 -3 9 -6 33 -6 55 0 24
-5 39 -12 39 -9 0 -13 -18 -13 -55z"/>
<path d="M790 280 c0 -16 5 -30 10 -30 6 0 10 14 10 30 0 17 -4 30 -10 30 -5
0 -10 -13 -10 -30z"/>
<path d="M820 245 c0 -37 4 -65 10 -65 6 0 10 7 10 15 0 8 5 15 10 15 6 0 10
23 10 50 0 43 -3 50 -20 50 -18 0 -20 -7 -20 -65z"/>
<path d="M1047 303 c-11 -10 -8 -91 3 -98 6 -4 10 15 10 49 0 57 -1 61 -13 49z"/>
<path d="M1070 302 c0 -5 3 -12 8 -16 4 -4 7 -22 7 -39 0 -33 4 -37 30 -37 11
0 15 12 15 50 0 47 -12 66 -23 38 -4 -10 -6 -10 -6 0 -1 13 -31 17 -31 4z"/>
<path d="M1140 280 c0 -16 5 -30 10 -30 14 0 12 -28 -2 -33 -7 -2 -10 -8 -6
-12 17 -18 38 6 39 42 1 21 3 30 6 20 2 -9 9 -15 14 -12 5 4 9 -5 9 -19 0 -19
5 -26 19 -26 22 0 31 19 31 66 0 32 -2 34 -34 34 -19 0 -37 -6 -39 -12 -4 -10
-6 -10 -6 0 -1 6 -10 12 -21 12 -16 0 -20 -7 -20 -30z"/>
</g>
</svg>